<?xml version="1.0" encoding="utf-8"?>
<svg baseProfile="tiny-ps" height="500" preserveAspectRatio="xMidYMid meet" version="1.2" viewBox="0 0 375 374.999991" width="500" xmlns="http://www.w3.org/2000/svg" xmlns:xlink="http://www.w3.org/1999/xlink" zoomAndPan="magnify">
 <defs>
  <g/>
 </defs>
 <rect fill="#ffffff" fill-opacity="1" height="449.999989" width="450" x="-37.5" y="-37.499999"/>
 <rect fill="#ffffff" fill-opacity="1" height="449.999989" width="450" x="-37.5" y="-37.499999"/>
 <g fill="#de9ca5" fill-opacity="1">
  <g transform="translate(75.511936, 259.460098)">
   <g>
    <path d="M 211.6875 -15.34375 C 211.6875 -0.300781 209.273438 13.382812 204.453125 25.71875 C 199.640625 38.0625 192.796875 48.59375 183.921875 57.3125 C 175.046875 66.039062 164.4375 72.8125 152.09375 77.625 C 139.757812 82.445312 126.070312 84.859375 111.03125 84.859375 C 97.488281 84.859375 84.546875 82.75 72.203125 78.53125 C 59.867188 74.320312 49.039062 68.226562 39.71875 60.25 C 30.394531 52.28125 22.945312 42.578125 17.375 31.140625 C 11.8125 19.703125 9.03125 6.765625 9.03125 -7.671875 C 9.03125 -21.515625 11.4375 -33.398438 16.25 -43.328125 C 21.0625 -53.253906 27.601562 -61.453125 35.875 -67.921875 C 44.15625 -74.390625 53.859375 -79.203125 64.984375 -82.359375 C 76.117188 -85.523438 88.007812 -87.109375 100.65625 -87.109375 L 100.65625 -85.296875 C 89.820312 -84.703125 79.816406 -82.070312 70.640625 -77.40625 C 61.460938 -72.738281 53.640625 -66.644531 47.171875 -59.125 C 40.703125 -51.601562 35.660156 -43.023438 32.046875 -33.390625 C 28.429688 -23.765625 26.625 -13.535156 26.625 -2.703125 C 26.625 9.628906 28.65625 20.832031 32.71875 30.90625 C 36.78125 40.988281 42.421875 49.640625 49.640625 56.859375 C 56.867188 64.085938 65.597656 69.65625 75.828125 73.5625 C 86.054688 77.476562 97.335938 79.4375 109.671875 79.4375 C 134.046875 79.4375 153.078125 72.289062 166.765625 58 C 180.460938 43.707031 187.3125 24.375 187.3125 0 C 187.3125 -12.9375 184.375 -24.742188 178.5 -35.421875 C 172.632812 -46.109375 165.265625 -56.191406 156.390625 -65.671875 C 147.515625 -75.148438 137.882812 -84.25 127.5 -92.96875 C 117.125 -101.695312 107.492188 -110.425781 98.609375 -119.15625 C 89.734375 -127.882812 82.363281 -136.910156 76.5 -146.234375 C 70.632812 -155.566406 67.703125 -165.644531 67.703125 -176.46875 C 67.703125 -184.289062 69.128906 -191.363281 71.984375 -197.6875 C 74.847656 -204.007812 78.757812 -209.273438 83.71875 -213.484375 C 88.6875 -217.691406 94.476562 -220.925781 101.09375 -223.1875 C 107.71875 -225.445312 114.789062 -226.578125 122.3125 -226.578125 C 125.320312 -226.578125 128.253906 -226.273438 131.109375 -225.671875 C 133.972656 -225.066406 136.757812 -224.460938 139.46875 -223.859375 L 150.75 -220.25 C 156.769531 -218.445312 162.488281 -217.546875 167.90625 -217.546875 C 172.113281 -217.546875 175.421875 -219.203125 177.828125 -222.515625 L 174.671875 -170.15625 C 173.460938 -176.175781 171.351562 -182.34375 168.34375 -188.65625 C 165.34375 -194.976562 161.507812 -200.695312 156.84375 -205.8125 C 152.175781 -210.925781 146.910156 -215.210938 141.046875 -218.671875 C 135.179688 -222.128906 128.785156 -223.859375 121.859375 -223.859375 C 110.722656 -223.859375 101.164062 -220.847656 93.1875 -214.828125 C 85.21875 -208.816406 81.234375 -199.796875 81.234375 -187.765625 C 81.234375 -178.429688 84.46875 -169.476562 90.9375 -160.90625 C 97.414062 -152.332031 105.46875 -143.90625 115.09375 -135.625 C 124.71875 -127.351562 135.171875 -118.925781 146.453125 -110.34375 C 157.742188 -101.769531 168.203125 -92.671875 177.828125 -83.046875 C 187.453125 -73.421875 195.5 -63.039062 201.96875 -51.90625 C 208.445312 -40.769531 211.6875 -28.582031 211.6875 -15.34375 Z M 211.6875 -15.34375 "/>
   </g>
  </g>
 </g>
</svg>
